<svg width="29" height="30" viewBox="0 0 29 30" fill="none" xmlns="http://www.w3.org/2000/svg">
<path id="account_circle" d="M5.67065 22.1995C6.87065 21.2818 8.21182 20.5583 9.69418 20.0289C11.1765 19.4995 12.7295 19.2348 14.353 19.2348C15.9765 19.2348 17.5295 19.4995 19.0118 20.0289C20.4942 20.5583 21.8354 21.2818 23.0354 22.1995C23.8589 21.2348 24.5001 20.1407 24.9589 18.9171C25.4177 17.6936 25.6471 16.3877 25.6471 14.9995C25.6471 11.8701 24.5471 9.20537 22.3471 7.00537C20.1471 4.80537 17.4824 3.70537 14.353 3.70537C11.2236 3.70537 8.55888 4.80537 6.35888 7.00537C4.15888 9.20537 3.05888 11.8701 3.05888 14.9995C3.05888 16.3877 3.28829 17.6936 3.74712 18.9171C4.20594 20.1407 4.84712 21.2348 5.67065 22.1995ZM14.353 16.4112C12.9648 16.4112 11.7942 15.9348 10.8412 14.9818C9.88829 14.0289 9.41182 12.8583 9.41182 11.4701C9.41182 10.0818 9.88829 8.91125 10.8412 7.95831C11.7942 7.00537 12.9648 6.52889 14.353 6.52889C15.7412 6.52889 16.9118 7.00537 17.8648 7.95831C18.8177 8.91125 19.2942 10.0818 19.2942 11.4701C19.2942 12.8583 18.8177 14.0289 17.8648 14.9818C16.9118 15.9348 15.7412 16.4112 14.353 16.4112ZM14.353 29.1171C12.4001 29.1171 10.5648 28.7465 8.84712 28.0054C7.12947 27.2642 5.63535 26.2583 4.36476 24.9877C3.09418 23.7171 2.08829 22.223 1.34712 20.5054C0.60594 18.7877 0.235352 16.9524 0.235352 14.9995C0.235352 13.0465 0.60594 11.2112 1.34712 9.4936C2.08829 7.77595 3.09418 6.28184 4.36476 5.01125C5.63535 3.74066 7.12947 2.73478 8.84712 1.9936C10.5648 1.25242 12.4001 0.881836 14.353 0.881836C16.3059 0.881836 18.1412 1.25242 19.8589 1.9936C21.5765 2.73478 23.0706 3.74066 24.3412 5.01125C25.6118 6.28184 26.6177 7.77595 27.3589 9.4936C28.1001 11.2112 28.4706 13.0465 28.4706 14.9995C28.4706 16.9524 28.1001 18.7877 27.3589 20.5054C26.6177 22.223 25.6118 23.7171 24.3412 24.9877C23.0706 26.2583 21.5765 27.2642 19.8589 28.0054C18.1412 28.7465 16.3059 29.1171 14.353 29.1171Z" fill="#0A0A0A"/>
</svg>
