<svg width="35" height="34" viewBox="0 0 35 34" fill="none" xmlns="http://www.w3.org/2000/svg">
<g id="Icon">
<path id="Vector" d="M17.2361 5.70605C9.87374 5.70605 6.29492 9.28488 6.29492 16.6472C6.29492 24.0096 9.87374 27.5884 17.2361 27.5884C24.5984 27.5884 28.1773 24.0096 28.1773 16.6472C28.1773 9.28488 24.5984 5.70605 17.2361 5.70605ZM17.2361 25.4708C11.1345 25.4708 8.41257 22.7503 8.41257 16.6472C8.41257 10.5456 11.1345 7.8237 17.2361 7.8237C23.3392 7.8237 26.0596 10.5456 26.0596 16.6472C26.0596 22.7503 23.3392 25.4708 17.2361 25.4708Z" fill="#1A1918"/>
<path id="Vector_2" d="M17.2364 20.5313C17.0269 20.5313 16.8222 20.5934 16.6481 20.7097C16.474 20.8261 16.3383 20.9915 16.2581 21.1849C16.178 21.3784 16.157 21.5913 16.1979 21.7967C16.2387 22.0021 16.3396 22.1908 16.4877 22.3388C16.6357 22.4869 16.8244 22.5878 17.0298 22.6286C17.2352 22.6695 17.4481 22.6485 17.6416 22.5684C17.835 22.4882 18.0004 22.3525 18.1167 22.1784C18.2331 22.0043 18.2952 21.7995 18.2952 21.5901C18.3034 21.4489 18.2816 21.3076 18.2313 21.1754C18.181 21.0432 18.1033 20.9232 18.0033 20.8232C17.9033 20.7232 17.7832 20.6455 17.6511 20.5952C17.5189 20.5449 17.3775 20.5231 17.2364 20.5313ZM17.2462 10.649H17.2364C16.2054 10.6527 15.2179 11.0649 14.4903 11.7952C13.7626 12.5255 13.354 13.5145 13.354 14.5454V14.8842H15.4717V14.5454C15.4701 14.0756 15.6551 13.6244 15.986 13.2909C16.3169 12.9574 16.7666 12.7688 17.2364 12.7666C18.4589 12.7666 19.0011 13.3115 19.0011 14.5313C19.0011 15.7835 18.3757 16.0475 18.1709 16.1351C17.5919 16.3661 17.0939 16.7629 16.7393 17.2757C16.3847 17.7885 16.1893 18.3945 16.1775 19.0179V19.2522C16.8721 19.0735 17.6006 19.0735 18.2952 19.2522V19.0179C18.3079 18.8111 18.3811 18.6126 18.5056 18.447C18.63 18.2814 18.8003 18.1559 18.9954 18.0861C19.6745 17.7872 20.2437 17.2844 20.6242 16.6475C21.0046 16.0105 21.1775 15.2709 21.1187 14.5313C21.1612 14.0115 21.0903 13.4887 20.9109 12.9991C20.7315 12.5094 20.4478 12.0646 20.0795 11.6954C19.7112 11.3261 19.2671 11.0413 18.7779 10.8607C18.2887 10.68 17.7661 10.6077 17.2462 10.649Z" fill="#1A1918"/>
</g>
</svg>
