<svg xmlns="http://www.w3.org/2000/svg" width="20" height="20" viewBox="0 0 20 20" fill="none">
  <mask id="mask0_367_507" style="mask-type:alpha" maskUnits="userSpaceOnUse" x="0" y="0" width="21" height="20">
    <rect x="0.683594" y="0.34082" width="19.3174" height="19.3174" fill="#D9D9D9"/>
  </mask>
  <g mask="url(#mask0_367_507)">
    <path d="M10.3356 12.8762C10.2283 12.8762 10.1277 12.8594 10.0338 12.8259C9.93989 12.7924 9.85269 12.7353 9.7722 12.6549L6.87459 9.75725C6.71361 9.59627 6.63647 9.40846 6.64318 9.19382C6.64989 8.97918 6.72702 8.79137 6.87459 8.63039C7.03557 8.46942 7.22673 8.38557 7.44807 8.37887C7.66942 8.37216 7.86058 8.44929 8.02156 8.61027L9.53073 10.1194V4.36446C9.53073 4.13641 9.60787 3.94525 9.76214 3.79098C9.91641 3.63671 10.1076 3.55957 10.3356 3.55957C10.5637 3.55957 10.7548 3.63671 10.9091 3.79098C11.0634 3.94525 11.1405 4.13641 11.1405 4.36446V10.1194L12.6497 8.61027C12.8107 8.44929 13.0018 8.37216 13.2232 8.37887C13.4445 8.38557 13.6357 8.46942 13.7967 8.63039C13.9442 8.79137 14.0214 8.97918 14.0281 9.19382C14.0348 9.40846 13.9576 9.59627 13.7967 9.75725L10.8991 12.6549C10.8186 12.7353 10.7314 12.7924 10.6375 12.8259C10.5436 12.8594 10.4429 12.8762 10.3356 12.8762ZM5.50627 16.4379C5.06358 16.4379 4.68461 16.2802 4.36936 15.965C4.05411 15.6497 3.89648 15.2708 3.89648 14.8281V13.2183C3.89648 12.9902 3.97362 12.7991 4.12789 12.6448C4.28216 12.4905 4.47332 12.4134 4.70138 12.4134C4.92943 12.4134 5.12059 12.4905 5.27486 12.6448C5.42913 12.7991 5.50627 12.9902 5.50627 13.2183V14.8281H15.165V13.2183C15.165 12.9902 15.2421 12.7991 15.3964 12.6448C15.5507 12.4905 15.7418 12.4134 15.9699 12.4134C16.1979 12.4134 16.3891 12.4905 16.5434 12.6448C16.6976 12.7991 16.7748 12.9902 16.7748 13.2183V14.8281C16.7748 15.2708 16.6171 15.6497 16.3019 15.965C15.9866 16.2802 15.6077 16.4379 15.165 16.4379H5.50627Z" fill="white"/>
  </g>
</svg>