<svg xmlns="http://www.w3.org/2000/svg" width="38" height="38" viewBox="0 0 38 38" fill="none">
  <path d="M37.3333 0H0V37.3333H37.3333V0Z" fill="#E90A1E"/>
  <path d="M24.8422 10.5331C23.1099 9.97589 20.9532 9.64648 18.617 9.64648C16.2808 9.64648 14.1237 9.97589 12.3909 10.5331C7.78265 12.0152 4.61621 15.0934 4.61621 18.6504C4.61621 23.6545 10.8842 27.7119 18.617 27.7119C26.3498 27.7119 32.6163 23.6545 32.6163 18.6504C32.6163 15.0934 29.4499 12.0164 24.8424 10.5331M18.6172 23.8159C17.4632 23.8159 16.5208 21.5461 16.4655 18.694C17.1594 18.7564 17.8791 18.79 18.6172 18.79C19.3553 18.79 20.0737 18.7564 20.7685 18.694C20.7127 21.5463 19.7709 23.8159 18.6172 23.8159ZM16.6111 16.4611C16.9257 14.4591 17.7049 13.0411 18.6172 13.0411C19.5296 13.0411 20.3077 14.4591 20.6221 16.4611C19.9811 16.5191 19.3094 16.5512 18.6172 16.5512C17.925 16.5512 17.2529 16.5191 16.6111 16.4611ZM21.8484 16.31C21.38 13.1677 20.1106 10.9151 18.6174 10.9151C17.1243 10.9151 15.8535 13.1677 15.3854 16.31C12.5415 15.8658 10.5537 14.8549 10.5537 13.6773C10.5537 12.0904 14.1641 10.804 18.6174 10.804C23.0707 10.804 26.6803 12.0904 26.6803 13.6773C26.6803 14.8549 24.6923 15.8658 21.8484 16.31ZM6.66001 18.3187C6.66001 16.7846 7.25003 15.3471 8.27988 14.1102C8.26815 14.1961 8.26187 14.2827 8.26187 14.3696C8.26187 16.2993 11.1594 17.9396 15.1986 18.5427C15.1954 18.6883 15.1929 18.8346 15.1929 18.9821C15.1929 22.5701 16.1878 25.6094 17.5631 26.6571C11.4526 26.2833 6.66001 22.6938 6.66001 18.3187ZM19.6716 26.6571C21.0462 25.6094 22.0409 22.5703 22.0409 18.9821C22.0409 18.8346 22.0392 18.6885 22.036 18.5427C26.0746 17.9396 28.9723 16.2993 28.9723 14.3696C28.9723 14.2827 28.9654 14.1961 28.9537 14.1102C29.9831 15.3469 30.5736 16.7846 30.5736 18.3187C30.5736 22.6936 25.7808 26.2833 19.6716 26.6571Z" fill="white"/>
</svg>