<svg width="91" height="17" viewBox="0 0 91 17" fill="none" xmlns="http://www.w3.org/2000/svg">
<path id="Vector" d="M80.5229 9.93905L82.6441 4.37611L84.762 9.93905H80.5229ZM84.8459 1.21731H80.4407L74.2848 16.3006H78.1009L79.5029 12.6197H85.783L87.1857 16.3006H91L84.8459 1.21731ZM53.7763 13.6782C51.2906 13.6782 49.2787 11.4355 49.2787 8.6676C49.2787 5.89967 51.2903 3.65561 53.7763 3.65561C56.2623 3.65561 58.2729 5.89967 58.2729 8.6676C58.2729 11.4355 56.2579 13.6782 53.7763 13.6782ZM53.7763 0.700195C49.3758 0.700195 45.8082 4.26747 45.8082 8.6676C45.8082 13.0677 49.3758 16.6333 53.7763 16.6333C58.1768 16.6333 61.743 13.0677 61.743 8.6676C61.743 4.26747 58.1741 0.700195 53.7763 0.700195ZM22.3399 13.6782C19.8582 13.6782 17.845 11.4355 17.845 8.6676C17.845 5.89967 19.8582 3.65561 22.3399 3.65561C24.8215 3.65561 26.8381 5.89967 26.8381 8.6676C26.8381 11.4355 24.8245 13.6782 22.3399 13.6782ZM22.3399 0.700195C17.9404 0.700195 14.3762 4.26747 14.3762 8.6676C14.3762 13.0677 17.9404 16.6333 22.3399 16.6333C26.7393 16.6333 30.3066 13.0677 30.3066 8.6676C30.3066 4.26747 26.7393 0.700195 22.3399 0.700195ZM42.0308 1.21731L38.1275 7.32002L34.2211 1.21731H30.4037L36.4462 10.6761V16.3006H39.8067V10.6775L45.8488 1.21731H42.0311H42.0308ZM75.0882 1.21731H62.1938V4.10943H66.9696V16.3003H70.3335V4.10943H75.0882V1.21731ZM0.777832 4.10943H5.5553V16.3003H8.91749V4.10943H13.674V1.21731H0.778168L0.777832 4.10943Z" fill="black"/>
</svg>
