<svg width="95" height="29" viewBox="0 0 95 29" fill="none" xmlns="http://www.w3.org/2000/svg">
<rect x="0.5" y="0.333008" width="94" height="28" rx="4" fill="#F5F5F5"/>
<mask id="mask0_336_1313" style="mask-type:alpha" maskUnits="userSpaceOnUse" x="6" y="2" width="25" height="25">
<rect x="6.5" y="2.33301" width="24" height="24" fill="#D9D9D9"/>
</mask>
<g mask="url(#mask0_336_1313)">
<path d="M16.2778 21.3324C15.963 21.3324 15.6991 21.2259 15.4861 21.0129C15.2731 20.8 15.1667 20.5361 15.1667 20.2212C15.1667 19.9064 15.2731 19.6425 15.4861 19.4296C15.6991 19.2166 15.963 19.1101 16.2778 19.1101H20.7222C21.037 19.1101 21.3009 19.2166 21.5139 19.4296C21.7269 19.6425 21.8333 19.9064 21.8333 20.2212C21.8333 20.5361 21.7269 20.8 21.5139 21.0129C21.3009 21.2259 21.037 21.3324 20.7222 21.3324H16.2778ZM11.8333 15.7768C11.5185 15.7768 11.2546 15.6703 11.0417 15.4574C10.8287 15.2444 10.7222 14.9805 10.7222 14.6657C10.7222 14.3509 10.8287 14.087 11.0417 13.874C11.2546 13.6611 11.5185 13.5546 11.8333 13.5546H25.1667C25.4815 13.5546 25.7454 13.6611 25.9583 13.874C26.1713 14.087 26.2778 14.3509 26.2778 14.6657C26.2778 14.9805 26.1713 15.2444 25.9583 15.4574C25.7454 15.6703 25.4815 15.7768 25.1667 15.7768H11.8333ZM9.61111 10.2212C9.2963 10.2212 9.03241 10.1148 8.81944 9.9018C8.60648 9.68884 8.5 9.42495 8.5 9.11013C8.5 8.79532 8.60648 8.53143 8.81944 8.31847C9.03241 8.1055 9.2963 7.99902 9.61111 7.99902H27.3889C27.7037 7.99902 27.9676 8.1055 28.1806 8.31847C28.3935 8.53143 28.5 8.79532 28.5 9.11013C28.5 9.42495 28.3935 9.68884 28.1806 9.9018C27.9676 10.1148 27.7037 10.2212 27.3889 10.2212H9.61111Z" fill="#808080"/>
</g>
<path d="M40.1177 9.39301H43.6877L45.6617 13.719L47.8597 9.39301H51.3037V19.333H48.6997V12.641L46.7117 16.827H44.6117L42.6937 12.641V19.333H40.1177V9.39301ZM55.27 9.39301H61.682V11.703H57.93V13.257H61.57V15.483H57.93V17.023H61.808V19.333H55.27V9.39301ZM74.5719 9.39301V19.333H72.0099L68.0479 13.481V19.333H65.5279V9.39301H68.1039L72.0519 15.259V9.39301H74.5719ZM82.7057 19.473C81.847 19.473 81.1004 19.319 80.4657 19.011C79.831 18.703 79.3364 18.2597 78.9817 17.681C78.6364 17.093 78.4637 16.393 78.4637 15.581V9.39301H81.1237V15.301C81.1237 15.8517 81.2637 16.267 81.5437 16.547C81.833 16.827 82.225 16.967 82.7197 16.967C83.2144 16.967 83.6017 16.827 83.8817 16.547C84.171 16.267 84.3157 15.8517 84.3157 15.301V9.39301H86.9477V15.581C86.9477 16.393 86.7704 17.093 86.4157 17.681C86.0704 18.2597 85.5804 18.703 84.9457 19.011C84.311 19.319 83.5644 19.473 82.7057 19.473Z" fill="#808080"/>
</svg>
