<svg width="35" height="34" viewBox="0 0 35 34" fill="none" xmlns="http://www.w3.org/2000/svg">
<g id="Icon">
<path id="Vector" d="M25.6817 18.3721L25.2172 18.063C24.8784 17.8375 24.6007 17.5316 24.4088 17.1727C24.2169 16.8138 24.1168 16.413 24.1175 16.006V13.6484C24.1175 12.1039 24.1175 10.3561 23.3226 8.93873C22.3683 7.23756 20.5485 6.41309 17.7645 6.41309C14.9805 6.41309 13.1622 7.23897 12.2064 8.93591C11.4116 10.3547 11.4116 12.1039 11.4116 13.647V16.0074C11.4113 16.4138 11.3107 16.8139 11.1186 17.172C10.9265 17.5301 10.6489 17.8352 10.3104 18.0601L9.84875 18.3693C9.0256 18.9166 8.35074 19.6591 7.88442 20.5307C7.4181 21.4022 7.17481 22.3757 7.17628 23.3641V24.766H14.941C14.9105 25.1446 14.9626 25.5252 15.0938 25.8816C15.2249 26.238 15.4319 26.5616 15.7004 26.8301C15.9689 27.0987 16.2926 27.3056 16.649 27.4368C17.0054 27.5679 17.386 27.62 17.7645 27.5896C18.143 27.62 18.5237 27.5679 18.8801 27.4368C19.2365 27.3056 19.5601 27.0987 19.8286 26.8301C20.0972 26.5616 20.3041 26.238 20.4353 25.8816C20.5664 25.5252 20.6185 25.1446 20.588 24.766H28.3527V23.3641C28.3538 22.3763 28.1104 21.4036 27.6444 20.5326C27.1783 19.6616 26.5041 18.9194 25.6817 18.3721ZM9.36028 22.6484C9.4553 22.1394 9.65144 21.6546 9.93709 21.2227C10.2227 20.7909 10.5921 20.4207 11.0233 20.134L11.4864 19.8249C12.1153 19.4064 12.631 18.8388 12.9874 18.1728C13.3438 17.5067 13.53 16.7629 13.5292 16.0074V13.6441C13.5292 12.2987 13.5292 10.9081 14.0516 9.97356C14.4017 9.3552 15.1669 8.53073 17.7645 8.53073C20.3636 8.53073 21.1287 9.3552 21.4775 9.97497C22.0012 10.9096 22.0012 12.2987 21.9998 13.6456V16.0089C21.9993 16.764 22.1855 17.5076 22.542 18.1734C22.8984 18.8392 23.4139 19.4065 24.0426 19.8249L24.5071 20.134C24.938 20.4209 25.3071 20.7911 25.5925 21.223C25.8779 21.6548 26.0738 22.1395 26.1687 22.6484H9.36028Z" fill="#1A1918"/>
</g>
</svg>
